<svg fill="#808080" width="64px" height="64px" viewBox="0 0 32.00 32.00" id="icon" xmlns="http://www.w3.org/2000/svg" stroke="#808080" stroke-width="0.00032"><g id="SVGRepo_bgCarrier" stroke-width="0"><rect x="0" y="0" width="32.00" height="32.00" rx="4.48" fill="#cccccc" strokewidth="0"></rect></g><g id="SVGRepo_tracerCarrier" stroke-linecap="round" stroke-linejoin="round"></g><g id="SVGRepo_iconCarrier"> <defs> <style> .cls-1 { fill: none; } </style> </defs> <path d="M25,12H20v2h5a1.0008,1.0008,0,0,1,1,1v2H22a3.0033,3.0033,0,0,0-3,3v1a3.0033,3.0033,0,0,0,3,3h6V15A3.0033,3.0033,0,0,0,25,12ZM22,22a1.0008,1.0008,0,0,1-1-1V20a1.0008,1.0008,0,0,1,1-1h4v3Z"></path> <path d="M16,24h2L12,7H10L4,24H6l1.6936-5h6.6135ZM8.3711,17l2.4966-7.3711.2668.0005L13.63,17Z"></path> <rect id="_Transparent_Rectangle_" data-name="<Transparent Rectangle>" class="cls-1" width="32" height="32"></rect> </g></svg>